<?xml version="1.0" standalone="no"?>
<!DOCTYPE svg PUBLIC "-//W3C//DTD SVG 20010904//EN"
 "http://www.w3.org/TR/2001/REC-SVG-20010904/DTD/svg10.dtd">
<svg version="1.0" xmlns="http://www.w3.org/2000/svg"
 width="1024.000000pt" height="1024.000000pt" viewBox="0 0 1024.000000 1024.000000"
 preserveAspectRatio="xMidYMid meet">

    <linearGradient id="grad1" x1="0%" y1="0%" x2="100%" y2="100%">
      <stop offset="0%" style="stop-color:rgb(255,135,0);stop-opacity:1" />
      <stop offset="100%" style="stop-color:rgb(255,0,0);stop-opacity:1" />
    </linearGradient>

<g transform="translate(0.000000,1024.000000) scale(0.100000,-0.100000)"
fill="#000000" stroke="none">
<path d="M4002 7834 l-22 -19 0 -1270 c1 -1317 7 -1615 35 -1749 82 -389 389
-704 782 -800 119 -29 107 47 113 -751 l5 -692 27 -38 c32 -46 143 -125 173
-125 41 0 151 87 183 145 15 27 17 95 17 724 l0 694 85 23 c363 96 605 286
746 582 51 107 83 242 94 401 11 147 14 2838 4 2865 -5 14 -32 16 -200 16
l-194 0 0 -1439 c0 -943 -4 -1467 -10 -1518 -34 -253 -153 -430 -350 -522
-122 -57 -300 -87 -450 -78 -290 18 -541 228 -627 522 -17 56 -18 165 -21
1548 l-2 1487 -124 0 c-68 0 -150 3 -182 6 -49 5 -63 3 -82 -12z"/>
<path d="M6621 7837 c-8 -8 -11 -405 -11 -1513 0 -1652 3 -1569 -62 -1752 -38
-108 -73 -179 -134 -268 -158 -233 -333 -383 -579 -499 -61 -29 -119 -60 -128
-69 -14 -15 -17 -39 -17 -165 l0 -148 44 8 c116 21 382 140 531 236 355 230
604 560 705 933 56 210 53 123 57 1741 l4 1496 -49 7 c-82 11 -348 6 -361 -7z"/>
<path d="M3214 7814 c-4 -15 -2 -688 4 -1498 11 -1582 8 -1498 62 -1710 42
-162 143 -367 260 -528 128 -176 354 -361 589 -481 146 -75 373 -167 411 -167
19 0 20 6 20 153 0 118 -3 157 -15 174 -8 11 -45 33 -82 48 -222 87 -414 224
-552 389 -113 137 -179 258 -231 424 -66 214 -63 119 -67 1745 l-4 1477 -194
0 -195 0 -6 -26z"/>
</g>
</svg>
